<svg id="Layer_1" data-name="Layer 1" xmlns="http://www.w3.org/2000/svg" viewBox="0 0 298.8 108.81"><defs><style>.cls-1{fill:#6d6e71;}.cls-2{fill:#939598;}.cls-3{fill:#f79225;}</style></defs><title>Egen-Logo</title><path class="cls-1" d="M15,49.06a59.1,59.1,0,0,0,.64,9.71,11.48,11.48,0,0,0,2.57,5.86,10,10,0,0,0,5.36,2.93,42.49,42.49,0,0,0,9.14.79H43.2q6.35,0,16.49-.29L57.12,80.48q-4.43.14-7.57.21t-5.78.07H32.7q-10.14,0-16.49-2.36a23.18,23.18,0,0,1-10-6.71A23.62,23.62,0,0,1,1.29,61.13,68.18,68.18,0,0,1,0,47.35v-8A71.86,71.86,0,0,1,1.36,24.71a25.43,25.43,0,0,1,5-11A23.07,23.07,0,0,1,16.49,6.79Q23,4.37,33.42,4.36q9.57,0,15.64,2.21a24,24,0,0,1,9.57,6,20.16,20.16,0,0,1,4.78,8.71A40.27,40.27,0,0,1,64.69,31.5v2.14a45.68,45.68,0,0,1-.57,8.14,10.75,10.75,0,0,1-1.86,4.64,5.86,5.86,0,0,1-3.21,2.14,18.66,18.66,0,0,1-4.64.5ZM32.7,16.22a39.09,39.09,0,0,0-9.14.86,9.72,9.72,0,0,0-5.36,3.21,13.33,13.33,0,0,0-2.57,6.5A72.39,72.39,0,0,0,15,37.5H50.55V32.64a34,34,0,0,0-.79-7.93,9.7,9.7,0,0,0-2.86-5.07A12.15,12.15,0,0,0,41.41,17,40.11,40.11,0,0,0,32.7,16.22Z"/><path class="cls-1" d="M172.83,47.84a59.1,59.1,0,0,0,.64,9.71A11.48,11.48,0,0,0,176,63.41a10,10,0,0,0,5.36,2.93,42.49,42.49,0,0,0,9.14.79H201q6.35,0,16.49-.29L215,79.26q-4.43.14-7.57.21t-5.78.07H190.54q-10.14,0-16.49-2.36a23.18,23.18,0,0,1-10-6.71,23.62,23.62,0,0,1-4.93-10.57,68.18,68.18,0,0,1-1.29-13.78v-8a71.86,71.86,0,0,1,1.36-14.64,25.43,25.43,0,0,1,5-11,23.07,23.07,0,0,1,10.14-6.93q6.5-2.43,16.92-2.43,9.57,0,15.64,2.21a24,24,0,0,1,9.57,6,20.16,20.16,0,0,1,4.78,8.71,40.27,40.27,0,0,1,1.29,10.21v2.14a45.68,45.68,0,0,1-.57,8.14,10.75,10.75,0,0,1-1.86,4.64,5.86,5.86,0,0,1-3.21,2.14,18.66,18.66,0,0,1-4.64.5ZM190.54,15a39.09,39.09,0,0,0-9.14.86A9.72,9.72,0,0,0,176,19.07a13.33,13.33,0,0,0-2.57,6.5,72.39,72.39,0,0,0-.64,10.71h35.56V31.42a34,34,0,0,0-.79-7.93,9.7,9.7,0,0,0-2.86-5.07,12.15,12.15,0,0,0-5.5-2.64A40.11,40.11,0,0,0,190.54,15Z"/><path class="cls-1" d="M233.4,79.26V27.14q0-12.85,7.93-18.42T266.1,3.14q16.85,0,24.78,5.57t7.93,18.42V79.26h-15V30.14a40.71,40.71,0,0,0-.43-6.28,8.53,8.53,0,0,0-2.14-4.57A10.71,10.71,0,0,0,276,16.5a52.76,52.76,0,0,0-19.71,0A10.7,10.7,0,0,0,251,19.28a8.53,8.53,0,0,0-2.14,4.57,40.71,40.71,0,0,0-.43,6.28V79.26Z"/><path class="cls-1" d="M111.26,0A39.78,39.78,0,1,0,129,75.36v1a40.32,40.32,0,0,1-1,9.85,12.36,12.36,0,0,1-3.36,6.07,13.46,13.46,0,0,1-6.07,3.14,37.67,37.67,0,0,1-9,.93H98.84q-5.21,0-12.35-.29l-2.86,12.42q4.28.14,7.71.21t6.43.07h12A59.06,59.06,0,0,0,125.26,107a25.07,25.07,0,0,0,10.64-5.64,22.59,22.59,0,0,0,6.07-10c1.2-3.84,7.83-36.85,8.66-45.86A39.77,39.77,0,0,0,111.26,0Zm.19,67.49a27.79,27.79,0,1,1,27.79-27.79A27.79,27.79,0,0,1,111.45,67.49Z"/><path class="cls-2" d="M128.79,54.85H93.69l.12-.22,17.42-30.18Zm-34.6-.29h34.1L111.24,25Z"/><path class="cls-2" d="M107.54,62.65l-6.09-34.56,33,12Zm-5.72-34.12,5.92,33.58,26.12-21.92Z"/><path class="cls-2" d="M123.17,59.73,96.28,37.17l33-12ZM96.85,37.27,123,59.19l5.92-33.58Z"/><path class="cls-2" d="M133.25,47.44H98.16l.12-.22L115.71,17Zm-34.6-.29h34.1L115.71,17.62Z"/><path class="cls-2" d="M106.2,54.11l-6.09-34.56,33,12ZM100.48,20l5.92,33.58,26.12-21.92Z"/><path class="cls-2" d="M116.65,54,89.76,31.48l33-12ZM90.33,31.58,116.45,53.5l5.92-33.58Z"/><path class="cls-2" d="M124.61,47.28H89.51l.12-.22,17.42-30.18ZM90,47h34.1l-17-29.53Z"/><path class="cls-2" d="M99.47,59.54,93.38,25l33,12ZM93.75,25.42,99.67,59l26.12-21.92Z"/><path class="cls-2" d="M115,62.53,88.1,40l33-12ZM88.67,40.07,114.79,62l5.92-33.58Z"/><circle class="cls-3" cx="111.17" cy="24.73" r="2"/><circle class="cls-3" cx="94.06" cy="54.69" r="2"/><circle class="cls-3" cx="128.47" cy="54.69" r="2"/><circle class="cls-3" cx="101.56" cy="28.29" r="2" transform="translate(5.58 71.9) rotate(-40)"/><circle class="cls-3" cx="107.71" cy="62.24" r="2" transform="translate(-14.81 83.8) rotate(-40)"/><circle class="cls-3" cx="134.07" cy="40.12" r="2" transform="translate(5.58 95.57) rotate(-40)"/><circle class="cls-3" cx="96.49" cy="37.2" r="2" transform="translate(43.11 125.77) rotate(-80)"/><circle class="cls-3" cx="123.03" cy="59.25" r="2" transform="translate(43.31 170.12) rotate(-80)"/><circle class="cls-3" cx="129.01" cy="25.36" r="2" transform="translate(81.62 148.01) rotate(-80)"/><circle class="cls-3" cx="98.34" cy="47.28" r="2" transform="translate(-10.46 55.5) rotate(-30)"/><circle class="cls-3" cx="132.84" cy="47.12" r="2" transform="translate(-5.76 72.73) rotate(-30)"/><circle class="cls-3" cx="115.64" cy="17.32" r="2" transform="translate(6.83 60.14) rotate(-30)"/><circle class="cls-3" cx="106.23" cy="53.82" r="2" transform="translate(19.32 135.23) rotate(-70)"/><circle class="cls-3" cx="132.56" cy="31.51" r="2" transform="translate(57.61 145.3) rotate(-70)"/><circle class="cls-3" cx="100.22" cy="19.74" r="2" transform="translate(47.39 107.17) rotate(-70)"/><circle class="cls-3" cx="116.48" cy="53.75" r="2" transform="translate(-11.36 43.08) rotate(-20)"/><circle class="cls-3" cx="122.31" cy="19.74" r="2" transform="translate(0.62 43.02) rotate(-20)"/><circle class="cls-3" cx="89.97" cy="31.51" r="2" transform="translate(-5.35 32.67) rotate(-20)"/><circle class="cls-3" cx="124.28" cy="47.12" r="2" transform="translate(21.34 131.19) rotate(-60)"/><circle class="cls-3" cx="106.89" cy="17.32" r="2" transform="translate(38.45 101.23) rotate(-60)"/><circle class="cls-3" cx="89.69" cy="47.12" r="2" transform="translate(4.04 101.23) rotate(-60)"/><circle class="cls-3" cx="126" cy="37.01" r="2" transform="matrix(0.98, -0.17, 0.17, 0.98, -4.51, 22.44)"/><circle class="cls-3" cx="93.52" cy="25.36" r="2" transform="translate(-2.98 16.63) rotate(-10)"/><circle class="cls-3" cx="99.5" cy="59.25" r="2" transform="translate(-8.78 18.18) rotate(-10)"/><circle class="cls-3" cx="120.82" cy="28.17" r="2" transform="translate(21.58 102.62) rotate(-50)"/><circle class="cls-3" cx="88.45" cy="40.12" r="2" transform="translate(0.86 82.09) rotate(-50)"/><circle class="cls-3" cx="114.81" cy="62.24" r="2" transform="translate(-6.67 110.19) rotate(-50)"/></svg>